<?xml version="1.0" encoding="UTF-8" standalone="no"?>
<svg
   viewBox="0 0 143.5 143.5"
   version="1.1"
   id="svg20"
   width="143.5"
   height="143.5"
   xmlns="http://www.w3.org/2000/svg">
  <defs
     id="defs24" />
  <path
     fill="#050a14"
     d="m 82.15,71.7 a 10.4,10.4 0 0 1 -20.8,0 10.4,10.4 0 1 1 20.8,0 z M 117.95,45 c -2.2,-3.9 -5,-7.5 -8.2,-10.7 l -12,7 c -3.7,-3.2 -8,-5.7 -12.6,-7.3 a 49.4,49.4 0 0 0 -9.7,13.9 59,59 0 0 1 40.1,14 l 7.6,-4.4 A 57,57 0 0 0 117.95,45 Z m -46.2,80.1 c 4.5,0 9,-0.6 13.4,-1.7 v -14 a 40,40 0 0 0 12.5,-7.2 47.7,47.7 0 0 0 -7.1,-15.3 59,59 0 0 1 -32.2,27.7 v 8.7 c 4.4,1.2 8.9,1.8 13.4,1.8 z M 25.55,45 c -2.3,4 -4,8.1 -5.2,12.5 l 12,7 a 40,40 0 0 0 0,14.4 c 5.7,1.5 11.3,2 16.9,1.5 a 59,59 0 0 1 -8,-41.7 l -7.5,-4.3 c -3.2,3.2 -6,6.7 -8.2,10.6 z"
     id="path14" />
  <path
     fill="#00b4ff"
     d="m 117.95,98.4 c 2.3,-3.9 4,-8 5.2,-12.4 l -12,-7 a 40,40 0 0 0 0,-14.5 c -5.7,-1.5 -11.3,-2 -16.9,-1.5 a 59,59 0 0 1 8,41.7 l 7.5,4.4 c 3.2,-3.2 6,-6.8 8.2,-10.7 z m -92.4,0 c 2.2,4 5,7.5 8.2,10.7 l 12,-7 a 40,40 0 0 0 12.6,7.3 c 4,-4.1 7.3,-8.8 9.7,-13.8 a 59,59 0 0 1 -40,-14 l -7.7,4.4 c 1.2,4.3 3,8.5 5.2,12.4 z m 46.2,-80 c -4.5,0 -9,0.5 -13.4,1.7 V 34 a 40,40 0 0 0 -12.5,7.2 c 1.5,5.7 4,10.8 7.1,15.4 A 59,59 0 0 1 85.15,28.9 V 20 a 53.3,53.3 0 0 0 -13.4,-1.8 z"
     id="path16" />
  <path
     fill="#00b4ff"
     d="m 71.75,9.2 a 62.60002,62.60002 0 1 1 -0.1,125.2 62.60002,62.60002 0 0 1 0.1,-125.2 m 0,-9.2 a 71.75,71.75 0 1 0 0,143.5 71.75,71.75 0 0 0 0,-143.5 z"
     id="path18" />
</svg>
